<svg xmlns="http://www.w3.org/2000/svg" viewBox="0 0 32 32">
  <rect width="32" height="32" rx="6" fill="#18181b"/>
  <g fill="none" stroke="#ffffff" stroke-width="2" stroke-linecap="round" stroke-linejoin="round" transform="translate(4 4)">
    <path d="M5 20a2 2 0 0 1 2-2h10a2 2 0 0 1 2 2v1a1 1 0 0 1-1 1H6a1 1 0 0 1-1-1z"/>
    <path d="M10 2v2"/>
    <path d="M14 2v2"/>
    <path d="m17 18-1-9"/>
    <path d="M6 2v5a2 2 0 0 0 2 2h8a2 2 0 0 0 2-2V2"/>
    <path d="M6 4h12"/>
    <path d="m7 18 1-9"/>
  </g>
</svg>
